<svg width="125" height="20" viewBox="0 0 125 20" fill="none" xmlns="http://www.w3.org/2000/svg">
<path d="M26.5114 19.8434V6.77619H35.734V8.88225H28.8223V12.32H34.8301V14.3899H28.8223V17.7343H35.734V19.8404H26.5114V19.8434Z" fill="white"/>
<path d="M42.7964 19.991C41.9227 19.991 41.0971 19.8614 40.3198 19.6023C39.5545 19.3312 38.9157 18.9063 38.3975 18.3278C37.8793 17.7373 37.5418 16.966 37.3822 16.0169H39.7293C39.8769 16.496 40.1119 16.8726 40.4313 17.1438C40.7627 17.4149 41.1514 17.6047 41.5943 17.7162C42.0372 17.8156 42.4861 17.8638 42.9441 17.8638C43.3508 17.8638 43.7335 17.8156 44.089 17.7162C44.4596 17.6047 44.7609 17.427 44.9959 17.1799C45.243 16.9328 45.3665 16.6074 45.3665 16.2007C45.3665 15.8934 45.2972 15.6463 45.1646 15.4625C45.0411 15.2667 44.8633 15.104 44.6283 14.9835C44.4054 14.8479 44.1342 14.7424 43.8148 14.6701C43.5075 14.5707 43.1731 14.4863 42.8175 14.411C42.459 14.3357 42.1095 14.2573 41.763 14.17C41.4165 14.0826 41.0911 13.9741 40.7838 13.8385C40.3891 13.703 40.0064 13.5493 39.6389 13.3776C39.2803 13.1938 38.967 12.9708 38.6958 12.7117C38.4367 12.4526 38.2288 12.1332 38.0661 11.7506C37.9064 11.3679 37.8251 10.913 37.8251 10.3827C37.8251 9.78009 37.9245 9.26186 38.1203 8.83101C38.3312 8.3881 38.5994 8.02353 38.9338 7.74032C39.2803 7.4571 39.66 7.23414 40.0788 7.07445C40.5096 6.91477 40.9525 6.79726 41.4105 6.72194C41.8775 6.64661 42.3234 6.61046 42.7422 6.61046C43.5557 6.61046 44.2939 6.74604 44.9597 7.01721C45.6377 7.28837 46.1921 7.70717 46.6229 8.27361C47.0538 8.84005 47.3008 9.56617 47.3611 10.455H45.1255C45.0772 10.0362 44.9296 9.70476 44.6826 9.4577C44.4355 9.19859 44.1282 9.0148 43.7576 8.90332C43.387 8.77979 42.9863 8.71953 42.5554 8.71953C42.2601 8.71953 41.9649 8.74363 41.6696 8.79485C41.3864 8.84306 41.1273 8.93043 40.8923 9.05397C40.6693 9.1775 40.4855 9.34321 40.3379 9.55412C40.2023 9.74996 40.136 10.003 40.136 10.3134C40.136 10.5845 40.2023 10.8256 40.3379 11.0335C40.4734 11.2293 40.6572 11.398 40.8923 11.5336C41.1393 11.6692 41.4286 11.7927 41.76 11.9042C42.1908 12.076 42.6609 12.2055 43.164 12.2929C43.6822 12.3803 44.1673 12.4948 44.6253 12.6454C45.0682 12.7689 45.475 12.9226 45.8456 13.1064C46.2282 13.2781 46.5536 13.4951 46.8248 13.7542C47.0959 14.0012 47.3038 14.3086 47.4545 14.6792C47.6142 15.0377 47.6955 15.4685 47.6955 15.9717C47.6955 16.7099 47.5599 17.3396 47.2888 17.8578C47.0296 18.364 46.6651 18.7768 46.1981 19.0961C45.7431 19.4155 45.2189 19.6505 44.6283 19.7982C44.0498 19.9337 43.4382 20 42.7995 20L42.7964 19.991Z" fill="white"/>
<path d="M52.7122 19.8434V8.88225H48.6266V6.77619H59.0876V8.88225H55.002V19.8434H52.7092H52.7122Z" fill="white"/>
<path d="M58.2831 19.8434L63.2906 6.77619H66.0444L71.0339 19.8434H68.5392L67.6714 17.421H61.6455L60.7597 19.8434H58.2831ZM62.3837 15.333H66.9122L64.6585 9.10521L62.3837 15.333Z" fill="white"/>
<path d="M72.5734 19.8434V6.77619H75.0501L81.3532 16.2941V6.77619H83.6641V19.8434H81.2417L74.8844 10.3797V19.8434H72.5734Z" fill="white"/>
<path d="M92.2 19.991C90.8562 19.991 89.7113 19.7078 88.7622 19.1414C87.8252 18.5749 87.1051 17.7855 86.5989 16.7762C86.1048 15.7668 85.8607 14.6129 85.8607 13.3203C85.8607 12.0278 86.1138 10.8437 86.62 9.84638C87.1262 8.83704 87.8523 8.04765 88.8014 7.48121C89.7505 6.90272 90.8954 6.61348 92.2392 6.61348C93.5829 6.61348 94.7218 6.8967 95.6589 7.46313C96.608 8.02957 97.3341 8.81896 97.8402 9.8283C98.3464 10.8256 98.5965 11.9796 98.5965 13.2842C98.5965 14.5888 98.3434 15.7307 97.8402 16.74C97.3461 17.7494 96.62 18.5448 95.6589 19.1233C94.7098 19.7018 93.5588 19.991 92.203 19.991H92.2ZM92.2361 17.8458C93.1732 17.8458 93.9355 17.6288 94.529 17.198C95.1196 16.7671 95.5504 16.2067 95.8216 15.5168C96.1048 14.8268 96.2464 14.0946 96.2464 13.3173C96.2464 12.7268 96.165 12.1603 96.0054 11.618C95.8577 11.0757 95.6167 10.5906 95.2852 10.1567C94.9659 9.72586 94.5531 9.3854 94.0469 9.14135C93.5408 8.88224 92.9382 8.75268 92.2361 8.75268C91.3112 8.75268 90.5489 8.96961 89.9433 9.40046C89.3527 9.83132 88.9159 10.3917 88.6296 11.0817C88.3464 11.7717 88.2048 12.5159 88.2048 13.3173C88.2048 14.1188 88.3464 14.8449 88.6296 15.5348C88.9129 16.2248 89.3497 16.7852 89.9433 17.2161C90.5459 17.6349 91.3112 17.8458 92.2361 17.8458Z" fill="white"/>
<path d="M100.784 19.8434V6.77619H105.939C106.605 6.77619 107.231 6.84248 107.825 6.97806C108.416 7.10159 108.94 7.32455 109.395 7.64392C109.85 7.95124 110.208 8.37607 110.467 8.9184C110.726 9.46074 110.856 10.1326 110.856 10.9341C110.856 11.5999 110.739 12.1844 110.504 12.6906C110.268 13.1968 109.943 13.6216 109.524 13.9651C109.118 14.3116 108.632 14.5737 108.063 14.7605L110.928 19.8434H108.34L105.773 15.1311H103.095V19.8434H100.784ZM103.095 13.0793H105.626C106.044 13.0793 106.427 13.0492 106.77 12.9859C107.129 12.9106 107.436 12.7961 107.695 12.6334C107.967 12.4737 108.171 12.2568 108.307 11.9856C108.455 11.7024 108.536 11.3438 108.548 10.913C108.548 10.3948 108.437 9.988 108.214 9.69273C108.006 9.39746 107.695 9.18656 107.289 9.06303C106.894 8.93949 106.421 8.87923 105.867 8.87923H103.095V13.0733V13.0793Z" fill="white"/>
<path d="M111.944 19.8434L116.951 6.77619H119.705L124.695 19.8434H122.2L121.332 17.421H115.306L114.417 19.8434H111.941H111.944ZM116.044 15.333H120.573L118.319 9.10521L116.044 15.333Z" fill="white"/>
<path d="M21.2864 7.21L21.2804 19.9879H10.6115L10.6266 0L20.8044 6.4658C21.0334 6.66767 21.1629 6.85447 21.2864 7.21302V7.21Z" fill="white"/>
<path d="M7.85164 19.9608V1.57579L9.16229 0.768318V19.9367C8.75252 19.997 8.32467 19.997 7.85164 19.9578V19.9608Z" fill="white"/>
<path d="M5.21832 19.988L5.2153 3.29317L6.55006 2.41338L6.55305 19.9699L5.21832 19.988Z" fill="white"/>
<path d="M2.60912 19.9819L2.60309 4.97438C3.00381 4.65199 3.38947 4.39891 3.91673 4.09761V19.994L2.60912 19.9849V19.9819Z" fill="white"/>
<path d="M0 19.991V6.61344C0.454956 6.28804 0.816519 6.047 1.30763 5.76379L1.31366 19.9458L0 19.991Z" fill="white"/>
</svg>
